#usda 1.0
(
    customLayerData = {
        string creator = "URDF USD Converter v0.1.3"
    }
    defaultPrim = "onrobot_2fg14"
    kilogramsPerUnit = 1
    metersPerUnit = 1
    subLayers = [
        @./robot.usda@
    ]
    upAxis = "Z"
)

def Xform "onrobot_2fg14" (
    prepend apiSchemas = ["GeomModelAPI"]
    assetInfo = {
        string name = "onrobot_2fg14"
    }
    kind = "component"
)
{
    float3[] extentsHint = [(-0.0575, -0.039388992, -0.0025828434), (0.057500005, 0.035500005, 0.16900006), (3.4028235e38, 3.4028235e38, 3.4028235e38), (-3.4028235e38, -3.4028235e38, -3.4028235e38), (3.4028235e38, 3.4028235e38, 3.4028235e38), (-3.4028235e38, -3.4028235e38, -3.4028235e38), (-0.0575, -0.039379813, -0.0025828434), (0.0575, 0.035500005, 0.16900006)]

    def Scope "Materials"
    {
    }

    def Scope "Geometry"
    {
        def Xform "base_link"
        {
            def Xform "base_link"
            {
                quatf xformOp:orient = (-7.321349e-14, -0.70710677, 0.70710677, -7.30804e-14)
                float3 xformOp:scale = (1, 1, 1)
                double3 xformOp:translate = (0, 0, 0.0138)
                uniform token[] xformOpOrder = ["xformOp:translate", "xformOp:orient", "xformOp:scale"]

                def Xform "geo_28" (
                    instanceable = true
                    prepend references = @./instances.usda@</Instances/geo_28>
                )
                {
                    quatd xformOp:orient = (0.7071067691, 0.7071067691, 0, 0)
                    double3 xformOp:scale = (1, 1, 1)
                    double3 xformOp:translate = (0, 0, -0.09200000018)
                    uniform token[] xformOpOrder = ["xformOp:translate", "xformOp:orient", "xformOp:scale"]
                }

                def Xform "geo_29" (
                    instanceable = true
                    prepend references = @./instances.usda@</Instances/geo_29>
                )
                {
                    quatd xformOp:orient = (0.5, 0.5, 0.5, 0.5)
                    double3 xformOp:scale = (1, 1, 1)
                    double3 xformOp:translate = (0, 0, -0.1029499993)
                    uniform token[] xformOpOrder = ["xformOp:translate", "xformOp:orient", "xformOp:scale"]
                }

                def Xform "geo_19" (
                    instanceable = true
                    prepend references = @./instances.usda@</Instances/geo_19>
                )
                {
                    quatd xformOp:orient = (0.6674022079, -0.6674022079, 0.2336113602, -0.2336113602)
                    double3 xformOp:scale = (1.000000119, 1, 1.000000119)
                    double3 xformOp:translate = (0, 0.05350000039, -0.08680000156)
                    uniform token[] xformOpOrder = ["xformOp:translate", "xformOp:orient", "xformOp:scale"]
                }

                def Xform "geo_19_1" (
                    displayName = "geo_19"
                    instanceable = true
                    prepend references = @./instances.usda@</Instances/geo_19>
                )
                {
                    quatd xformOp:orient = (0.03346710652, -0.03346710652, 0.7063143253, -0.7063143253)
                    double3 xformOp:scale = (1.000000238, 1, 1.000000238)
                    double3 xformOp:translate = (0, -0.05350000039, -0.08680000156)
                    uniform token[] xformOpOrder = ["xformOp:translate", "xformOp:orient", "xformOp:scale"]
                }

                def Xform "geo_20" (
                    instanceable = true
                    prepend references = @./instances.usda@</Instances/geo_20>
                )
                {
                    quatd xformOp:orient = (0.5248454213, 0.5248454213, 0.4738536179, 0.4738536179)
                    double3 xformOp:scale = (1.000000358, 1, 1.000000358)
                    double3 xformOp:translate = (0.01925409958, -0.03141979873, -0.03667730093)
                    uniform token[] xformOpOrder = ["xformOp:translate", "xformOp:orient", "xformOp:scale"]
                }

                def Xform "geo_20_1" (
                    displayName = "geo_20"
                    instanceable = true
                    prepend references = @./instances.usda@</Instances/geo_20>
                )
                {
                    quatd xformOp:orient = (0.6813992262, 0.6813992262, -0.1889313906, -0.1889313906)
                    double3 xformOp:scale = (1.000000358, 1, 1.000000358)
                    double3 xformOp:translate = (-0.01925409958, 0.03141979873, -0.03667730093)
                    uniform token[] xformOpOrder = ["xformOp:translate", "xformOp:orient", "xformOp:scale"]
                }

                def Xform "geo_0" (
                    instanceable = true
                    prepend references = @./instances.usda@</Instances/geo_0>
                )
                {
                    quatd xformOp:orient = (0.7071067691, 0.7071067691, 0, 0)
                    double3 xformOp:scale = (1, 1, 1)
                    double3 xformOp:translate = (0, 0, 0.01379999984)
                    uniform token[] xformOpOrder = ["xformOp:translate", "xformOp:orient", "xformOp:scale"]
                }

                def Xform "geo_1" (
                    instanceable = true
                    prepend references = @./instances.usda@</Instances/geo_1>
                )
                {
                    quatd xformOp:orient = (0.5828282237, 0.5828282237, -0.4003888965, 0.4003888965)
                    double3 xformOp:scale = (1.000000238, 1.000000238, 1)
                    double3 xformOp:translate = (-0.02669999935, 0, 0.005299999844)
                    uniform token[] xformOpOrder = ["xformOp:translate", "xformOp:orient", "xformOp:scale"]
                }

                def Xform "geo_2" (
                    instanceable = true
                    prepend references = @./instances.usda@</Instances/geo_2>
                )
                {
                    quatd xformOp:orient = (0.4999987483, 0.5000012517, 0.5000012517, 0.4999987483)
                    double3 xformOp:scale = (1, 1, 1)
                    double3 xformOp:translate = (0, 0.01850000024, 0.007563400082)
                    uniform token[] xformOpOrder = ["xformOp:translate", "xformOp:orient", "xformOp:scale"]
                }

                def Xform "geo_3" (
                    instanceable = true
                    prepend references = @./instances.usda@</Instances/geo_3>
                )
                {
                    quatd xformOp:orient = (0.4999987483, 0.5000012517, 0.5000012517, 0.4999987483)
                    double3 xformOp:scale = (1, 1, 1)
                    double3 xformOp:translate = (0, 0.01850000024, 0.007563400082)
                    uniform token[] xformOpOrder = ["xformOp:translate", "xformOp:orient", "xformOp:scale"]
                }

                def Xform "geo_4" (
                    instanceable = true
                    prepend references = @./instances.usda@</Instances/geo_4>
                )
                {
                    quatd xformOp:orient = (0.4999987483, 0.5000012517, 0.5000012517, 0.4999987483)
                    double3 xformOp:scale = (1, 1, 1)
                    double3 xformOp:translate = (0, 0.01850000024, 0.007563400082)
                    uniform token[] xformOpOrder = ["xformOp:translate", "xformOp:orient", "xformOp:scale"]
                }

                def Xform "geo_5" (
                    instanceable = true
                    prepend references = @./instances.usda@</Instances/geo_5>
                )
                {
                    quatd xformOp:orient = (0.4999987483, 0.5000012517, 0.5000012517, 0.4999987483)
                    double3 xformOp:scale = (1, 1, 1)
                    double3 xformOp:translate = (0, 0.01850000024, 0.007563400082)
                    uniform token[] xformOpOrder = ["xformOp:translate", "xformOp:orient", "xformOp:scale"]
                }

                def Xform "geo_6" (
                    instanceable = true
                    prepend references = @./instances.usda@</Instances/geo_6>
                )
                {
                    quatd xformOp:orient = (0.4999987483, 0.5000012517, 0.5000012517, 0.4999987483)
                    double3 xformOp:scale = (1, 1, 1)
                    double3 xformOp:translate = (0, 0.01850000024, 0.007563400082)
                    uniform token[] xformOpOrder = ["xformOp:translate", "xformOp:orient", "xformOp:scale"]
                }

                def Xform "geo_7" (
                    instanceable = true
                    prepend references = @./instances.usda@</Instances/geo_7>
                )
                {
                    quatd xformOp:orient = (0.4999987483, 0.5000012517, 0.5000012517, 0.4999987483)
                    double3 xformOp:scale = (1, 1, 1)
                    double3 xformOp:translate = (0, 0.01850000024, 0.007563400082)
                    uniform token[] xformOpOrder = ["xformOp:translate", "xformOp:orient", "xformOp:scale"]
                }

                def Xform "geo_8" (
                    instanceable = true
                    prepend references = @./instances.usda@</Instances/geo_8>
                )
                {
                    quatd xformOp:orient = (0.4999987483, 0.5000012517, 0.5000012517, 0.4999987483)
                    double3 xformOp:scale = (1, 1, 1)
                    double3 xformOp:translate = (0, 0.01850000024, 0.007563400082)
                    uniform token[] xformOpOrder = ["xformOp:translate", "xformOp:orient", "xformOp:scale"]
                }

                def Xform "geo_9" (
                    instanceable = true
                    prepend references = @./instances.usda@</Instances/geo_9>
                )
                {
                    quatd xformOp:orient = (0.4999987483, 0.5000012517, 0.5000012517, 0.4999987483)
                    double3 xformOp:scale = (1, 1, 1)
                    double3 xformOp:translate = (0, 0.01850000024, 0.007563400082)
                    uniform token[] xformOpOrder = ["xformOp:translate", "xformOp:orient", "xformOp:scale"]
                }

                def Xform "geo_10" (
                    instanceable = true
                    prepend references = @./instances.usda@</Instances/geo_10>
                )
                {
                    quatd xformOp:orient = (0, 0.7071067691, 0.7071067691, 0)
                    double3 xformOp:scale = (1, 1, 1)
                    double3 xformOp:translate = (0, 0, 0.01370000001)
                    uniform token[] xformOpOrder = ["xformOp:translate", "xformOp:orient", "xformOp:scale"]
                }

                def Xform "geo_11" (
                    instanceable = true
                    prepend references = @./instances.usda@</Instances/geo_11>
                )
                {
                    quatd xformOp:orient = (0, 0.7071067691, 0.7071067691, 0)
                    double3 xformOp:scale = (1, 1, 1)
                    double3 xformOp:translate = (0, 0, 0.01370000001)
                    uniform token[] xformOpOrder = ["xformOp:translate", "xformOp:orient", "xformOp:scale"]
                }

                def Xform "geo_12" (
                    instanceable = true
                    prepend references = @./instances.usda@</Instances/geo_12>
                )
                {
                    quatd xformOp:orient = (0, 0.7071067691, 0.7071067691, 0)
                    double3 xformOp:scale = (1, 1, 1)
                    double3 xformOp:translate = (0, 0, 0.01370000001)
                    uniform token[] xformOpOrder = ["xformOp:translate", "xformOp:orient", "xformOp:scale"]
                }

                def Xform "geo_13" (
                    instanceable = true
                    prepend references = @./instances.usda@</Instances/geo_13>
                )
                {
                    quatd xformOp:orient = (0, 0.7071067691, 0.7071067691, 0)
                    double3 xformOp:scale = (1, 1, 1)
                    double3 xformOp:translate = (0, 0, 0.01370000001)
                    uniform token[] xformOpOrder = ["xformOp:translate", "xformOp:orient", "xformOp:scale"]
                }

                def Xform "geo_14" (
                    instanceable = true
                    prepend references = @./instances.usda@</Instances/geo_14>
                )
                {
                    quatd xformOp:orient = (0, 0.7071067691, 0.7071067691, 0)
                    double3 xformOp:scale = (1, 1, 1)
                    double3 xformOp:translate = (0, 0, 0.01370000001)
                    uniform token[] xformOpOrder = ["xformOp:translate", "xformOp:orient", "xformOp:scale"]
                }

                def Xform "geo_15" (
                    instanceable = true
                    prepend references = @./instances.usda@</Instances/geo_15>
                )
                {
                    quatd xformOp:orient = (0.500346005, 0.500346005, 0.4996537864, 0.4996537864)
                    double3 xformOp:scale = (0.9999999404, 1, 0.9999999404)
                    double3 xformOp:translate = (0, 0, 0.0002828429861)
                    uniform token[] xformOpOrder = ["xformOp:translate", "xformOp:orient", "xformOp:scale"]
                }

                def Xform "geo_16" (
                    instanceable = true
                    prepend references = @./instances.usda@</Instances/geo_16>
                )
                {
                    quatd xformOp:orient = (0, 0.7049548626, 0.7092521787, 0)
                    double3 xformOp:scale = (1.000000477, 1.000000477, 1)
                    double3 xformOp:translate = (0.0002613260003, -0.04299920052, 0.007934840396)
                    uniform token[] xformOpOrder = ["xformOp:translate", "xformOp:orient", "xformOp:scale"]
                }

                def Xform "geo_17" (
                    instanceable = true
                    prepend references = @./instances.usda@</Instances/geo_17>
                )
                {
                    quatd xformOp:orient = (0.5, -0.5, 0.5, -0.5)
                    double3 xformOp:scale = (1, 1, 1)
                    double3 xformOp:translate = (0.1421159953, 0.05538740009, 0.1929419935)
                    uniform token[] xformOpOrder = ["xformOp:translate", "xformOp:orient", "xformOp:scale"]
                }

                def Xform "geo_18" (
                    instanceable = true
                    prepend references = @./instances.usda@</Instances/geo_18>
                )
                {
                    quatd xformOp:orient = (0.5, -0.5, 0.5, -0.5)
                    double3 xformOp:scale = (1, 1, 1)
                    double3 xformOp:translate = (0.1421159953, 0.05538740009, 0.1929419935)
                    uniform token[] xformOpOrder = ["xformOp:translate", "xformOp:orient", "xformOp:scale"]
                }

                def Xform "geo_21" (
                    instanceable = true
                    prepend references = @./instances.usda@</Instances/geo_21>
                )
                {
                    quatd xformOp:orient = (0.7071067691, 0.7071067691, 0, 0)
                    double3 xformOp:scale = (1, 1, 1)
                    double3 xformOp:translate = (-0.005200000014, 0, -0.08769640326)
                    uniform token[] xformOpOrder = ["xformOp:translate", "xformOp:orient", "xformOp:scale"]
                }

                def Xform "geo_22" (
                    instanceable = true
                    prepend references = @./instances.usda@</Instances/geo_22>
                )
                {
                    quatd xformOp:orient = (0.7071067691, 0.7071067691, 0, 0)
                    double3 xformOp:scale = (1, 1, 1)
                    double3 xformOp:translate = (-0.005200000014, 0, -0.08769640326)
                    uniform token[] xformOpOrder = ["xformOp:translate", "xformOp:orient", "xformOp:scale"]
                }

                def Xform "geo_23" (
                    instanceable = true
                    prepend references = @./instances.usda@</Instances/geo_23>
                )
                {
                    quatd xformOp:orient = (0.7071067691, 0.7071067691, 0, 0)
                    double3 xformOp:scale = (1, 1, 1)
                    double3 xformOp:translate = (-0.005200000014, 0, -0.08769640326)
                    uniform token[] xformOpOrder = ["xformOp:translate", "xformOp:orient", "xformOp:scale"]
                }

                def Xform "geo_24" (
                    instanceable = true
                    prepend references = @./instances.usda@</Instances/geo_24>
                )
                {
                    quatd xformOp:orient = (0.7071067691, 0.7071067691, 0, 0)
                    double3 xformOp:scale = (1, 1, 1)
                    double3 xformOp:translate = (-0.005200000014, 0, -0.08769640326)
                    uniform token[] xformOpOrder = ["xformOp:translate", "xformOp:orient", "xformOp:scale"]
                }

                def Xform "geo_25" (
                    instanceable = true
                    prepend references = @./instances.usda@</Instances/geo_25>
                )
                {
                    quatd xformOp:orient = (0.7071067691, 0.7071067691, 0, 0)
                    double3 xformOp:scale = (1, 1, 1)
                    double3 xformOp:translate = (-0.005200000014, 0, -0.08769640326)
                    uniform token[] xformOpOrder = ["xformOp:translate", "xformOp:orient", "xformOp:scale"]
                }

                def Xform "geo_26" (
                    instanceable = true
                    prepend references = @./instances.usda@</Instances/geo_26>
                )
                {
                    quatd xformOp:orient = (0.7071067691, 0.7071067691, 0, 0)
                    double3 xformOp:scale = (1, 1, 1)
                    double3 xformOp:translate = (-0.005200000014, 0, -0.08769640326)
                    uniform token[] xformOpOrder = ["xformOp:translate", "xformOp:orient", "xformOp:scale"]
                }

                def Xform "geo_27" (
                    instanceable = true
                    prepend references = @./instances.usda@</Instances/geo_27>
                )
                {
                    quatd xformOp:orient = (0.7071067691, 0.7071067691, 0, 0)
                    double3 xformOp:scale = (1, 1, 1)
                    double3 xformOp:translate = (-0.005200000014, 0, -0.08769640326)
                    uniform token[] xformOpOrder = ["xformOp:translate", "xformOp:orient", "xformOp:scale"]
                }

                def Xform "geo_21_1" (
                    displayName = "geo_21"
                    instanceable = true
                    prepend references = @./instances.usda@</Instances/geo_21>
                )
                {
                    quatd xformOp:orient = (0, 0, 0.7071067691, 0.7071067691)
                    double3 xformOp:scale = (1, 1, 1)
                    double3 xformOp:translate = (0.005200000014, 0, -0.08769640326)
                    uniform token[] xformOpOrder = ["xformOp:translate", "xformOp:orient", "xformOp:scale"]
                }

                def Xform "geo_22_1" (
                    displayName = "geo_22"
                    instanceable = true
                    prepend references = @./instances.usda@</Instances/geo_22>
                )
                {
                    quatd xformOp:orient = (0, 0, 0.7071067691, 0.7071067691)
                    double3 xformOp:scale = (1, 1, 1)
                    double3 xformOp:translate = (0.005200000014, 0, -0.08769640326)
                    uniform token[] xformOpOrder = ["xformOp:translate", "xformOp:orient", "xformOp:scale"]
                }

                def Xform "geo_23_1" (
                    displayName = "geo_23"
                    instanceable = true
                    prepend references = @./instances.usda@</Instances/geo_23>
                )
                {
                    quatd xformOp:orient = (0, 0, 0.7071067691, 0.7071067691)
                    double3 xformOp:scale = (1, 1, 1)
                    double3 xformOp:translate = (0.005200000014, 0, -0.08769640326)
                    uniform token[] xformOpOrder = ["xformOp:translate", "xformOp:orient", "xformOp:scale"]
                }

                def Xform "geo_24_1" (
                    displayName = "geo_24"
                    instanceable = true
                    prepend references = @./instances.usda@</Instances/geo_24>
                )
                {
                    quatd xformOp:orient = (0, 0, 0.7071067691, 0.7071067691)
                    double3 xformOp:scale = (1, 1, 1)
                    double3 xformOp:translate = (0.005200000014, 0, -0.08769640326)
                    uniform token[] xformOpOrder = ["xformOp:translate", "xformOp:orient", "xformOp:scale"]
                }

                def Xform "geo_25_1" (
                    displayName = "geo_25"
                    instanceable = true
                    prepend references = @./instances.usda@</Instances/geo_25>
                )
                {
                    quatd xformOp:orient = (0, 0, 0.7071067691, 0.7071067691)
                    double3 xformOp:scale = (1, 1, 1)
                    double3 xformOp:translate = (0.005200000014, 0, -0.08769640326)
                    uniform token[] xformOpOrder = ["xformOp:translate", "xformOp:orient", "xformOp:scale"]
                }

                def Xform "geo_26_1" (
                    displayName = "geo_26"
                    instanceable = true
                    prepend references = @./instances.usda@</Instances/geo_26>
                )
                {
                    quatd xformOp:orient = (0, 0, 0.7071067691, 0.7071067691)
                    double3 xformOp:scale = (1, 1, 1)
                    double3 xformOp:translate = (0.005200000014, 0, -0.08769640326)
                    uniform token[] xformOpOrder = ["xformOp:translate", "xformOp:orient", "xformOp:scale"]
                }

                def Xform "geo_27_1" (
                    displayName = "geo_27"
                    instanceable = true
                    prepend references = @./instances.usda@</Instances/geo_27>
                )
                {
                    quatd xformOp:orient = (0, 0, 0.7071067691, 0.7071067691)
                    double3 xformOp:scale = (1, 1, 1)
                    double3 xformOp:translate = (0.005200000014, 0, -0.08769640326)
                    uniform token[] xformOpOrder = ["xformOp:translate", "xformOp:orient", "xformOp:scale"]
                }
            }

            def Xform "base_link_1" (
                displayName = "base_link"
                instanceable = true
                prepend references = @./instances.usda@</Instances/base_link_1>
            )
            {
                quatd xformOp:orient = (1, 0, 0, 0)
                double3 xformOp:scale = (1, 1, 1)
                double3 xformOp:translate = (0, 0, 0)
                uniform token[] xformOpOrder = ["xformOp:translate", "xformOp:orient", "xformOp:scale"]
            }
        }

        def Xform "right_fingertip_link"
        {
            matrix4d xformOp:transform = ( (-0.0000037089227327147256, -5.571635893877381e-14, 0.9999999999931223, 0), (0.000007346410042627059, -0.9999999999730158, 2.719155084972776e-11, 0), (0.9999999999661374, 0.000007346410042677381, 0.0000037089227319375695, 0), (0.017995, 0, 0.117, 1) )
            uniform token[] xformOpOrder = ["xformOp:transform"]

            def Xform "fingertip_link"
            {
                quatf xformOp:orient = (-0.70710677, 0.70710677, 0, 0)
                float3 xformOp:scale = (1, 1, 1)
                double3 xformOp:translate = (0, 0, 0)
                uniform token[] xformOpOrder = ["xformOp:translate", "xformOp:orient", "xformOp:scale"]

                def Xform "geo_0" (
                    instanceable = true
                    prepend references = @./instances.usda@</Instances/geo_0_1>
                )
                {
                    quatd xformOp:orient = (0.5, 0.5, -0.5, 0.5)
                    double3 xformOp:scale = (1, 1, 1)
                    double3 xformOp:translate = (0.006699999794, -0.002400000114, 0)
                    uniform token[] xformOpOrder = ["xformOp:translate", "xformOp:orient", "xformOp:scale"]
                }

                def Xform "geo_1" (
                    instanceable = true
                    prepend references = @./instances.usda@</Instances/geo_1_1>
                )
                {
                    quatd xformOp:orient = (0.5, -0.5, 0.5, 0.5)
                    double3 xformOp:scale = (1, 1, 1)
                    double3 xformOp:translate = (0.04707060009, -0.01049999986, 0)
                    uniform token[] xformOpOrder = ["xformOp:translate", "xformOp:orient", "xformOp:scale"]
                }

                def Xform "geo_1_1" (
                    displayName = "geo_1"
                    instanceable = true
                    prepend references = @./instances.usda@</Instances/geo_1_1>
                )
                {
                    quatd xformOp:orient = (0.5, 0.5, -0.5, 0.5)
                    double3 xformOp:scale = (1, 1, 1)
                    double3 xformOp:translate = (0.04707060009, -0.01449999958, -0.00009999999747)
                    uniform token[] xformOpOrder = ["xformOp:translate", "xformOp:orient", "xformOp:scale"]
                }

                def Xform "geo_2" (
                    instanceable = true
                    prepend references = @./instances.usda@</Instances/geo_2_1>
                )
                {
                    quatd xformOp:orient = (0.2551512718, -0.6594678164, -0.6594678164, -0.2551512718)
                    double3 xformOp:scale = (0.9999996424, 1, 0.9999996424)
                    double3 xformOp:translate = (-0.006399999838, 0.006000000052, 0.01250000019)
                    uniform token[] xformOpOrder = ["xformOp:translate", "xformOp:orient", "xformOp:scale"]
                }

                def Xform "geo_2_1" (
                    displayName = "geo_2"
                    instanceable = true
                    prepend references = @./instances.usda@</Instances/geo_2_1>
                )
                {
                    quatd xformOp:orient = (0.2551512718, -0.6594678164, -0.6594678164, -0.2551512718)
                    double3 xformOp:scale = (0.9999996424, 1, 0.9999996424)
                    double3 xformOp:translate = (-0.006399999838, -0.006000000052, 0.01250000019)
                    uniform token[] xformOpOrder = ["xformOp:translate", "xformOp:orient", "xformOp:scale"]
                }

                def Xform "geo_2_2" (
                    displayName = "geo_2"
                    instanceable = true
                    prepend references = @./instances.usda@</Instances/geo_2_1>
                )
                {
                    quatd xformOp:orient = (0.2551512718, -0.6594678164, -0.6594678164, -0.2551512718)
                    double3 xformOp:scale = (0.9999996424, 1, 0.9999996424)
                    double3 xformOp:translate = (-0.006399999838, -0.006000000052, -0.01250000019)
                    uniform token[] xformOpOrder = ["xformOp:translate", "xformOp:orient", "xformOp:scale"]
                }

                def Xform "geo_2_3" (
                    displayName = "geo_2"
                    instanceable = true
                    prepend references = @./instances.usda@</Instances/geo_2_1>
                )
                {
                    quatd xformOp:orient = (0.2551512718, -0.6594678164, -0.6594678164, -0.2551512718)
                    double3 xformOp:scale = (0.9999996424, 1, 0.9999996424)
                    double3 xformOp:translate = (-0.006399999838, 0.006000000052, -0.01250000019)
                    uniform token[] xformOpOrder = ["xformOp:translate", "xformOp:orient", "xformOp:scale"]
                }
            }

            def Xform "fingertip_link_1" (
                displayName = "fingertip_link"
                instanceable = true
                prepend references = @./instances.usda@</Instances/fingertip_link_1>
            )
            {
                quatd xformOp:orient = (1, 0, 0, 0)
                double3 xformOp:scale = (1, 1, 1)
                double3 xformOp:translate = (0, 0, 0)
                uniform token[] xformOpOrder = ["xformOp:translate", "xformOp:orient", "xformOp:scale"]
            }

            def Xform "reference_collisions"
            {
                def Cube "upper_contact" (
                    prepend apiSchemas = ["PhysicsCollisionAPI"]
                )
                {
                    float3[] extent = [(-0.5, -0.5, -0.5), (0.5, 0.5, 0.5)]
                    bool physics:collisionEnabled = 1
                    token purpose = "guide"
                    double size = 1
                    double3 xformOp:scale = (0.0453, 0.045, 0.006)
                    double3 xformOp:translate = (0.029435, 0, 0.0125)
                    uniform token[] xformOpOrder = ["xformOp:translate", "xformOp:scale"]
                }

                def Cube "lower_finger" (
                    prepend apiSchemas = ["PhysicsCollisionAPI"]
                )
                {
                    float3[] extent = [(-0.5, -0.5, -0.5), (0.5, 0.5, 0.5)]
                    bool physics:collisionEnabled = 1
                    token purpose = "guide"
                    double size = 1
                    double3 xformOp:scale = (0.0067, 0.045, 0.0258)
                    double3 xformOp:translate = (0.00335, 0, 0.002403)
                    uniform token[] xformOpOrder = ["xformOp:translate", "xformOp:scale"]
                }
            }
        }

        def Xform "left_fingertip_link"
        {
            matrix4d xformOp:transform = ( (-0.000003743147707790939, 0, 0.9999999999929946, 0), (0, 1, 0, 0), (-0.9999999999929946, 0, -0.000003743147707790939, 0), (-0.017995, 0, 0.117, 1) )
            uniform token[] xformOpOrder = ["xformOp:transform"]

            def Xform "fingertip_link"
            {
                quatf xformOp:orient = (-0.70710677, 0.70710677, 0, 0)
                float3 xformOp:scale = (1, 1, 1)
                double3 xformOp:translate = (0, 0, 0)
                uniform token[] xformOpOrder = ["xformOp:translate", "xformOp:orient", "xformOp:scale"]

                def Xform "geo_0" (
                    instanceable = true
                    prepend references = @./instances.usda@</Instances/geo_0_1>
                )
                {
                    quatd xformOp:orient = (0.5, 0.5, -0.5, 0.5)
                    double3 xformOp:scale = (1, 1, 1)
                    double3 xformOp:translate = (0.006699999794, -0.002400000114, 0)
                    uniform token[] xformOpOrder = ["xformOp:translate", "xformOp:orient", "xformOp:scale"]
                }

                def Xform "geo_1" (
                    instanceable = true
                    prepend references = @./instances.usda@</Instances/geo_1_1>
                )
                {
                    quatd xformOp:orient = (0.5, -0.5, 0.5, 0.5)
                    double3 xformOp:scale = (1, 1, 1)
                    double3 xformOp:translate = (0.04707060009, -0.01049999986, 0)
                    uniform token[] xformOpOrder = ["xformOp:translate", "xformOp:orient", "xformOp:scale"]
                }

                def Xform "geo_1_1" (
                    displayName = "geo_1"
                    instanceable = true
                    prepend references = @./instances.usda@</Instances/geo_1_1>
                )
                {
                    quatd xformOp:orient = (0.5, 0.5, -0.5, 0.5)
                    double3 xformOp:scale = (1, 1, 1)
                    double3 xformOp:translate = (0.04707060009, -0.01449999958, -0.00009999999747)
                    uniform token[] xformOpOrder = ["xformOp:translate", "xformOp:orient", "xformOp:scale"]
                }

                def Xform "geo_2" (
                    instanceable = true
                    prepend references = @./instances.usda@</Instances/geo_2_1>
                )
                {
                    quatd xformOp:orient = (0.2551512718, -0.6594678164, -0.6594678164, -0.2551512718)
                    double3 xformOp:scale = (0.9999996424, 1, 0.9999996424)
                    double3 xformOp:translate = (-0.006399999838, 0.006000000052, 0.01250000019)
                    uniform token[] xformOpOrder = ["xformOp:translate", "xformOp:orient", "xformOp:scale"]
                }

                def Xform "geo_2_1" (
                    displayName = "geo_2"
                    instanceable = true
                    prepend references = @./instances.usda@</Instances/geo_2_1>
                )
                {
                    quatd xformOp:orient = (0.2551512718, -0.6594678164, -0.6594678164, -0.2551512718)
                    double3 xformOp:scale = (0.9999996424, 1, 0.9999996424)
                    double3 xformOp:translate = (-0.006399999838, -0.006000000052, 0.01250000019)
                    uniform token[] xformOpOrder = ["xformOp:translate", "xformOp:orient", "xformOp:scale"]
                }

                def Xform "geo_2_2" (
                    displayName = "geo_2"
                    instanceable = true
                    prepend references = @./instances.usda@</Instances/geo_2_1>
                )
                {
                    quatd xformOp:orient = (0.2551512718, -0.6594678164, -0.6594678164, -0.2551512718)
                    double3 xformOp:scale = (0.9999996424, 1, 0.9999996424)
                    double3 xformOp:translate = (-0.006399999838, -0.006000000052, -0.01250000019)
                    uniform token[] xformOpOrder = ["xformOp:translate", "xformOp:orient", "xformOp:scale"]
                }

                def Xform "geo_2_3" (
                    displayName = "geo_2"
                    instanceable = true
                    prepend references = @./instances.usda@</Instances/geo_2_1>
                )
                {
                    quatd xformOp:orient = (0.2551512718, -0.6594678164, -0.6594678164, -0.2551512718)
                    double3 xformOp:scale = (0.9999996424, 1, 0.9999996424)
                    double3 xformOp:translate = (-0.006399999838, 0.006000000052, -0.01250000019)
                    uniform token[] xformOpOrder = ["xformOp:translate", "xformOp:orient", "xformOp:scale"]
                }
            }

            def Xform "fingertip_link_1" (
                displayName = "fingertip_link"
                instanceable = true
                prepend references = @./instances.usda@</Instances/fingertip_link_1>
            )
            {
                quatd xformOp:orient = (1, 0, 0, 0)
                double3 xformOp:scale = (1, 1, 1)
                double3 xformOp:translate = (0, 0, 0)
                uniform token[] xformOpOrder = ["xformOp:translate", "xformOp:orient", "xformOp:scale"]
            }

            def Xform "reference_collisions"
            {
                def Cube "upper_contact" (
                    prepend apiSchemas = ["PhysicsCollisionAPI"]
                )
                {
                    float3[] extent = [(-0.5, -0.5, -0.5), (0.5, 0.5, 0.5)]
                    bool physics:collisionEnabled = 1
                    token purpose = "guide"
                    double size = 1
                    double3 xformOp:scale = (0.0453, 0.045, 0.006)
                    double3 xformOp:translate = (0.029435, 0, 0.0125)
                    uniform token[] xformOpOrder = ["xformOp:translate", "xformOp:scale"]
                }

                def Cube "lower_finger" (
                    prepend apiSchemas = ["PhysicsCollisionAPI"]
                )
                {
                    float3[] extent = [(-0.5, -0.5, -0.5), (0.5, 0.5, 0.5)]
                    bool physics:collisionEnabled = 1
                    token purpose = "guide"
                    double size = 1
                    double3 xformOp:scale = (0.0067, 0.045, 0.0258)
                    double3 xformOp:translate = (0.00335, 0, 0.002403)
                    uniform token[] xformOpOrder = ["xformOp:translate", "xformOp:scale"]
                }
            }
        }

        def Xform "right_finger_base_link"
        {
            matrix4d xformOp:transform = ( (-0.0000037089227327147256, -5.571635893877381e-14, 0.9999999999931223, 0), (0.000007346410042627059, -0.9999999999730158, 2.719155084972776e-11, 0), (0.9999999999661374, 0.000007346410042677381, 0.0000037089227319375695, 0), (0.017995, 0, 0.117, 1) )
            uniform token[] xformOpOrder = ["xformOp:transform"]

            def Xform "finger_base_link" (
                instanceable = true
                prepend references = @./instances.usda@</Instances/finger_base_link>
            )
            {
                quatd xformOp:orient = (1, 0, 0, 0)
                double3 xformOp:scale = (1, 1, 1)
                double3 xformOp:translate = (0, 0, 0)
                uniform token[] xformOpOrder = ["xformOp:translate", "xformOp:orient", "xformOp:scale"]
            }

            def Xform "finger_base_link_1" (
                displayName = "finger_base_link"
                instanceable = true
                prepend references = @./instances.usda@</Instances/finger_base_link_1>
            )
            {
                quatd xformOp:orient = (1, 0, 0, 0)
                double3 xformOp:scale = (1, 1, 1)
                double3 xformOp:translate = (0, 0, 0)
                uniform token[] xformOpOrder = ["xformOp:translate", "xformOp:orient", "xformOp:scale"]
            }
        }

        def Xform "left_finger_base_link"
        {
            matrix4d xformOp:transform = ( (-0.000003743147707790939, 0, 0.9999999999929946, 0), (0, 1, 0, 0), (-0.9999999999929946, 0, -0.000003743147707790939, 0), (-0.017995, 0, 0.117, 1) )
            uniform token[] xformOpOrder = ["xformOp:transform"]

            def Xform "finger_base_link" (
                instanceable = true
                prepend references = @./instances.usda@</Instances/finger_base_link_2>
            )
            {
                quatd xformOp:orient = (1, 0, 0, 0)
                double3 xformOp:scale = (1, 1, 1)
                double3 xformOp:translate = (0, 0, 0)
                uniform token[] xformOpOrder = ["xformOp:translate", "xformOp:orient", "xformOp:scale"]
            }

            def Xform "finger_base_link_1" (
                displayName = "finger_base_link"
                instanceable = true
                prepend references = @./instances.usda@</Instances/finger_base_link_1>
            )
            {
                quatd xformOp:orient = (1, 0, 0, 0)
                double3 xformOp:scale = (1, 1, 1)
                double3 xformOp:translate = (0, 0, 0)
                uniform token[] xformOpOrder = ["xformOp:translate", "xformOp:orient", "xformOp:scale"]
            }
        }
    }

    def Scope "Physics"
    {
    }

    def Scope "VisualMaterials"
    {
    }
}
